<?xml version="1.0" encoding="UTF-8" standalone="no"?>
<!-- Created with Inkscape (http://www.inkscape.org/) -->

<svg
   width="138.42136mm"
   height="114.98849mm"
   viewBox="0 0 138.42136 114.98849"
   version="1.1"
   id="svg1"
   xml:space="preserve"
   sodipodi:docname="charon.log.txt"
   xmlns:inkscape="http://www.inkscape.org/namespaces/inkscape"
   xmlns:sodipodi="http://sodipodi.sourceforge.net/DTD/sodipodi-0.dtd"
   xmlns="http://www.w3.org/2000/svg"
   xmlns:svg="http://www.w3.org/2000/svg"><sodipodi:namedview
     id="namedview1"
     pagecolor="#ffffff"
     bordercolor="#000000"
     borderopacity="0.25"
     inkscape:showpageshadow="2"
     inkscape:pageopacity="0.0"
     inkscape:pagecheckerboard="0"
     inkscape:deskcolor="#d1d1d1"
     inkscape:document-units="mm"
     inkscape:zoom="0.74268532"
     inkscape:cx="-1378.1072"
     inkscape:cy="247.07638"
     inkscape:window-width="2560"
     inkscape:window-height="1388"
     inkscape:window-x="0"
     inkscape:window-y="0"
     inkscape:window-maximized="1"
     inkscape:current-layer="layer1"><inkscape:page
       x="0"
       y="-3.1996681e-20"
       width="138.42136"
       height="114.98849"
       id="page2"
       margin="0"
       bleed="0" /></sodipodi:namedview><defs
     id="defs1" /><g
     inkscape:label="Capa 1"
     inkscape:groupmode="layer"
     id="layer1"
     transform="translate(214.06769,149.30886)"><path
        style="fill:#ffffff"
       d="m -148.60786,-34.611335 c -1.11549,-0.21189 -2.83024,-0.68715 -3.81055,-1.05614 -0.98031,-0.36898 -2.21076,-0.92609 -2.73433,-1.23802 -0.52357,-0.31192 -1.76844,-1.17364 -2.76636,-1.91494 -0.99793,-0.741292 -2.5854,-2.300304 -3.52771,-3.464471 -1.50419,-1.85832 -2.81238,-4.328761 -10.71815,-20.240624 -4.95267,-9.968176 -11.18449,-22.529269 -13.84847,-27.91354 -2.66399,-5.38427 -5.4117,-10.68255 -6.10602,-11.77396 -0.69432,-1.0914 -1.88443,-2.81781 -2.64469,-3.83646 -0.76026,-1.01864 -2.14181,-2.63145 -3.0701,-3.58401 -0.92829,-0.95256 -2.43079,-2.35025 -3.33888,-3.10597 -0.90809,-0.75572 -2.34963,-1.84842 -3.20343,-2.42823 -0.8538,-0.5798 -2.60535,-1.57886 -3.89233,-2.22012 -1.28699,-0.64126 -3.08777,-1.43562 -4.00175,-1.76523 -0.91397,-0.32962 -1.72112,-0.69533 -1.79365,-0.8127 -0.0725,-0.11736 1.01603,-2.51109 2.41904,-5.3194 1.40301,-2.8083 2.58477,-5.14327 2.62614,-5.18883 0.0414,-0.0455 1.50279,0.57039 3.24763,1.36877 1.74483,0.79837 4.24565,2.11545 5.55737,2.92685 1.31172,0.8114 3.43858,2.29012 4.72635,3.28604 1.28777,0.99593 3.41818,2.87196 4.73426,4.16896 1.31608,1.29701 3.1526,3.31 4.08115,4.47333 0.92856,1.16332 2.47766,3.32329 3.44244,4.79993 0.96479,1.47664 3.13851,5.46523 4.8305,8.86354 1.69198,3.398307 6.07369,12.250927 9.73713,19.67249 3.66344,7.421562 8.42728,17.065624 10.58631,21.431248 2.44895,4.951865 4.38039,8.509642 5.13485,9.458575 0.66514,0.836591 1.83278,1.933098 2.59476,2.436682 0.76197,0.503584 2.09503,1.099023 2.96235,1.323196 0.86732,0.224174 1.99841,0.404678 2.51354,0.40112 0.51513,-0.0036 1.44755,-0.124327 2.07204,-0.268377 0.62449,-0.144051 1.69605,-0.522261 2.38125,-0.840468 0.6852,-0.318207 1.9874,-1.314957 2.89379,-2.214999 1.5699,-1.558906 1.88498,-2.117365 6.6501,-11.786917 2.75117,-5.582763 8.98875,-18.201529 13.86129,-28.041702 5.69677,-11.504728 9.49918,-18.861888 10.65213,-20.610458 0.98614,-1.49557 2.79439,-3.91681 4.01833,-5.38052 1.22395,-1.46371 3.320128,-3.66488 4.658178,-4.89148 1.33805,-1.22661 3.32833,-2.90063 4.42284,-3.72005 1.09451,-0.81942 3.13718,-2.17439 4.53926,-3.01105 1.40209,-0.83665 3.75347,-2.05511 5.22529,-2.70768 1.47182,-0.65257 2.72959,-1.18649 2.79504,-1.18649 0.0654,0 1.25957,2.3235 2.6536,5.16333 1.39402,2.83984 2.47279,5.26333 2.39725,5.38555 -0.0755,0.12221 -0.88513,0.49049 -1.7991,0.81839 -0.91398,0.32791 -2.92363,1.24692 -4.46591,2.04225 -1.54227,0.79532 -3.80445,2.19799 -5.02708,3.11704 -1.22262,0.91904 -3.42069,2.90458 -4.88459,4.41232 -1.72605,1.77773 -3.42939,3.9025 -4.8458,6.04474 -1.20128,1.81687 -3.355958,5.686401 -4.788178,8.598953 -1.43221,2.912551 -7.65569,15.47539 -13.82996,27.917421 -9.50875,19.161509 -11.46921,22.927109 -12.81637,24.617324 -0.87474,1.097497 -2.35283,2.601735 -3.28466,3.34275 -0.93182,0.741017 -2.46813,1.770937 -3.41401,2.288717 -0.94589,0.51777 -2.78343,1.24843 -4.08344,1.62367 -1.56311,0.45119 -3.2657,0.72335 -5.02708,0.80358 -1.72117,0.0784 -3.38097,-0.015 -4.69161,-0.26393 z m 1.76359,-21.262718 c -0.43657,-0.269663 -0.99879,-0.721403 -1.24939,-1.003868 -0.25059,-0.282465 -4.19332,-8.06834 -8.76161,-17.301944 -4.56829,-9.233604 -10.51142,-21.253215 -13.20696,-26.710245 -2.69554,-5.45703 -5.57847,-10.99344 -6.4065,-12.30312 -0.82804,-1.30969 -2.31027,-3.45383 -3.29384,-4.76476 -0.98357,-1.31093 -3.07948,-3.73094 -4.65757,-5.3778 -1.57809,-1.64687 -4.06801,-3.96016 -5.53315,-5.14065 -1.46515,-1.18049 -3.91405,-2.96624 -5.44202,-3.96834 -1.52797,-1.00209 -4.41497,-2.63585 -6.41555,-3.63057 l -3.63742,-1.80857 2.83509,-5.71247 c 1.72978,-3.48535 2.98373,-5.71247 3.21632,-5.71247 0.20968,0 2.2376,0.96237 4.5065,2.13859 2.26889,1.17623 5.43495,3.00339 7.03568,4.06036 1.60073,1.05698 4.0346,2.79494 5.40861,3.86214 1.374,1.06721 3.86198,3.2584 5.52884,4.86933 1.66686,1.61093 4.10587,4.23864 5.42002,5.83937 1.31416,1.60073 3.33189,4.33917 4.48384,6.08542 1.54048,2.33519 4.725,8.47627 12.03952,23.217185 5.46977,11.023202 10.0371,20.042186 10.14961,20.042186 0.11251,0 2.2508,-4.137422 4.75177,-9.19427 2.50096,-5.056849 6.61214,-13.393361 9.13594,-18.525571 2.5238,-5.13222 5.14611,-10.31144 5.82735,-11.50938 0.68125,-1.19794 2.06573,-3.42124 3.07664,-4.94067 1.0109,-1.51942 2.93994,-4.07927 4.28674,-5.68854 1.3468,-1.60927 3.44686,-3.88216 4.6668,-5.05087 1.21994,-1.16871 2.99197,-2.7889 3.93786,-3.60043 0.94588,-0.81152 2.70559,-2.20176 3.91045,-3.08942 1.20486,-0.88766 3.28845,-2.29719 4.63021,-3.13231 1.341748,-0.83511 4.156448,-2.38795 6.254888,-3.45075 2.09844,-1.0628 3.96354,-1.93237 4.14467,-1.93237 0.18112,0 1.5956,2.58761 3.14328,5.75025 1.54767,3.16264 2.69778,5.78898 2.55579,5.8363 -0.14198,0.0473 -1.78509,0.84431 -3.65133,1.77107 -1.86624,0.92676 -4.64333,2.50479 -6.1713,3.50674 -1.52796,1.00194 -3.96875,2.7814 -5.42395,3.95435 -1.455208,1.17295 -3.929498,3.46178 -5.498428,5.08628 -1.56892,1.62451 -3.72663,4.12808 -4.7949,5.56349 -1.06827,1.43542 -2.54885,3.614 -3.29018,4.8413 -0.74132,1.2273 -4.04644,7.63882 -7.3447,14.247817 -3.29826,6.608998 -9.29698,18.683859 -13.33049,26.833025 -4.03352,8.149167 -7.61945,15.076626 -7.96873,15.394354 -0.34929,0.317729 -0.97024,0.704682 -1.3799,0.859896 -0.40966,0.155214 -1.18356,0.281763 -1.71979,0.281219 -0.53623,-5.44e-4 -1.33215,-0.221622 -1.76871,-0.491284 z"
       id="path26" /></g></svg>
