<svg width="390" height="844" viewBox="0 0 390 844" fill="none" xmlns="http://www.w3.org/2000/svg" role="img" aria-labelledby="title desc">
  <title id="title">Vanta Music home screenshot placeholder</title>
  <desc id="desc">Dark mobile UI placeholder for the home screen.</desc>
  <rect width="390" height="844" rx="44" fill="#050505"/>
  <rect x="12" y="12" width="366" height="820" rx="36" stroke="#27272A"/>
  <text x="32" y="78" fill="#F8FAFC" font-family="Inter, Arial, sans-serif" font-size="28" font-weight="800">Vanta</text>
  <text x="32" y="110" fill="#71717A" font-family="Inter, Arial, sans-serif" font-size="14">Local library</text>
  <rect x="32" y="146" width="326" height="150" rx="28" fill="#111113"/>
  <circle cx="112" cy="221" r="48" fill="#18181B" stroke="#7C3AED" stroke-opacity="0.7"/>
  <text x="184" y="215" fill="#FAFAFA" font-family="Inter, Arial, sans-serif" font-size="20" font-weight="700">Now Playing</text>
  <text x="184" y="242" fill="#71717A" font-family="Inter, Arial, sans-serif" font-size="14">Track preview</text>
  <text x="32" y="348" fill="#F8FAFC" font-family="Inter, Arial, sans-serif" font-size="20" font-weight="700">Recently added</text>
  <g fill="#111113">
    <rect x="32" y="374" width="92" height="92" rx="22"/>
    <rect x="149" y="374" width="92" height="92" rx="22"/>
    <rect x="266" y="374" width="92" height="92" rx="22"/>
  </g>
  <g fill="#27272A">
    <rect x="32" y="486" width="326" height="64" rx="18"/>
    <rect x="32" y="566" width="326" height="64" rx="18"/>
    <rect x="32" y="646" width="326" height="64" rx="18"/>
  </g>
  <text x="126" y="790" fill="#52525B" font-family="Inter, Arial, sans-serif" font-size="13">Home placeholder</text>
</svg>
