<svg width="390" height="844" viewBox="0 0 390 844" fill="none" xmlns="http://www.w3.org/2000/svg" role="img" aria-labelledby="title desc">
  <title id="title">Vanta Music library screenshot placeholder</title>
  <desc id="desc">Dark mobile UI placeholder for the library screen.</desc>
  <rect width="390" height="844" rx="44" fill="#050505"/>
  <rect x="12" y="12" width="366" height="820" rx="36" stroke="#27272A"/>
  <text x="32" y="78" fill="#F8FAFC" font-family="Inter, Arial, sans-serif" font-size="28" font-weight="800">Library</text>
  <rect x="32" y="118" width="326" height="48" rx="16" fill="#111113"/>
  <text x="56" y="148" fill="#52525B" font-family="Inter, Arial, sans-serif" font-size="14">Search artists, albums, tracks</text>
  <g font-family="Inter, Arial, sans-serif" font-size="13" font-weight="700">
    <rect x="32" y="196" width="88" height="36" rx="18" fill="#7C3AED" fill-opacity="0.22"/>
    <text x="55" y="219" fill="#DDD6FE">Tracks</text>
    <rect x="132" y="196" width="88" height="36" rx="18" fill="#111113"/>
    <text x="154" y="219" fill="#71717A">Albums</text>
    <rect x="232" y="196" width="88" height="36" rx="18" fill="#111113"/>
    <text x="255" y="219" fill="#71717A">Artists</text>
  </g>
  <g>
    <rect x="32" y="272" width="326" height="70" rx="20" fill="#111113"/>
    <rect x="52" y="290" width="34" height="34" rx="10" fill="#27272A"/>
    <rect x="104" y="294" width="152" height="10" rx="5" fill="#D4D4D8"/>
    <rect x="104" y="316" width="96" height="8" rx="4" fill="#52525B"/>
    <rect x="32" y="362" width="326" height="70" rx="20" fill="#111113"/>
    <rect x="52" y="380" width="34" height="34" rx="10" fill="#27272A"/>
    <rect x="104" y="384" width="128" height="10" rx="5" fill="#D4D4D8"/>
    <rect x="104" y="406" width="108" height="8" rx="4" fill="#52525B"/>
    <rect x="32" y="452" width="326" height="70" rx="20" fill="#111113"/>
    <rect x="52" y="470" width="34" height="34" rx="10" fill="#27272A"/>
    <rect x="104" y="474" width="168" height="10" rx="5" fill="#D4D4D8"/>
    <rect x="104" y="496" width="88" height="8" rx="4" fill="#52525B"/>
    <rect x="32" y="542" width="326" height="70" rx="20" fill="#111113"/>
    <rect x="52" y="560" width="34" height="34" rx="10" fill="#27272A"/>
    <rect x="104" y="564" width="142" height="10" rx="5" fill="#D4D4D8"/>
    <rect x="104" y="586" width="118" height="8" rx="4" fill="#52525B"/>
  </g>
  <text x="123" y="790" fill="#52525B" font-family="Inter, Arial, sans-serif" font-size="13">Library placeholder</text>
</svg>
